<?xml version="1.0" encoding="utf-8"?>
<!-- Generator: Adobe Illustrator 19.0.0, SVG Export Plug-In . SVG Version: 6.00 Build 0)  -->
<svg version="1.1" id="Layer_1" xmlns="http://www.w3.org/2000/svg" xmlns:xlink="http://www.w3.org/1999/xlink" x="0px" y="0px"
	 viewBox="0 0 339 56" style="enable-background:new 0 0 339 56;" xml:space="preserve">
<style type="text/css">
	.st0{fill:#221D55;}
	.st1{fill:#F69433;}
	.st2{fill:#058161;}
	.st3{fill:#BCBEC0;}
</style>
<g id="XMLID_4_">
	<g id="XMLID_5_">
		<g id="XMLID_203_">
			<g id="XMLID_573_">
				<path id="XMLID_629_" class="st0" d="M82.6,19.5c-0.8,0.4-1.9,0.6-3.3,0.6c-1.8,0-3.1-0.5-4.1-1.5c-1-1-1.5-2.4-1.5-4.1
					c0-1.8,0.6-3.3,1.7-4.4c1.1-1.1,2.6-1.7,4.4-1.7c1.1,0,2.1,0.1,2.8,0.4v2.5c-0.8-0.5-1.6-0.7-2.6-0.7c-1.1,0-1.9,0.3-2.6,1
					c-0.7,0.7-1,1.6-1,2.7c0,1.1,0.3,2,0.9,2.6c0.6,0.7,1.5,1,2.5,1c1,0,1.9-0.2,2.8-0.7V19.5z"/>
				<path id="XMLID_626_" class="st0" d="M89.4,20.1c-1.6,0-3-0.5-4-1.6c-1-1.1-1.5-2.5-1.5-4.2c0-1.8,0.5-3.3,1.6-4.4
					c1-1.1,2.4-1.7,4.2-1.7c1.6,0,2.9,0.5,4,1.6c1,1.1,1.5,2.5,1.5,4.2c0,1.8-0.5,3.2-1.6,4.3C92.5,19.5,91.1,20.1,89.4,20.1z
					 M89.5,10.5c-0.9,0-1.6,0.3-2.2,1c-0.5,0.7-0.8,1.6-0.8,2.7c0,1.1,0.3,2,0.8,2.7c0.5,0.7,1.2,1,2.1,1c0.9,0,1.6-0.3,2.1-1
					c0.5-0.6,0.8-1.5,0.8-2.7c0-1.2-0.3-2.1-0.8-2.8C91.1,10.8,90.4,10.5,89.5,10.5z"/>
				<path id="XMLID_624_" class="st0" d="M110,19.9h-2.5v-6.8c0-0.7,0-1.6,0.1-2.4h-0.1c-0.1,0.7-0.3,1.2-0.4,1.5l-2.7,7.8h-2.1
					l-2.7-7.7c-0.1-0.2-0.2-0.7-0.4-1.6h-0.1c0.1,1.1,0.1,2.1,0.1,3v6.3H97V8.5h3.8l2.3,6.8c0.2,0.5,0.3,1.1,0.4,1.6h0
					c0.1-0.6,0.3-1.2,0.5-1.6l2.3-6.8h3.7V19.9z"/>
				<path id="XMLID_622_" class="st0" d="M125.6,19.9h-2.5v-6.8c0-0.7,0-1.6,0.1-2.4h-0.1c-0.1,0.7-0.3,1.2-0.4,1.5l-2.7,7.8h-2.1
					l-2.7-7.7c-0.1-0.2-0.2-0.7-0.4-1.6h-0.1c0.1,1.1,0.1,2.1,0.1,3v6.3h-2.3V8.5h3.8l2.3,6.8c0.2,0.5,0.3,1.1,0.4,1.6h0
					c0.1-0.6,0.3-1.2,0.5-1.6l2.3-6.8h3.7V19.9z"/>
				<path id="XMLID_619_" class="st0" d="M133,20.1c-1.6,0-3-0.5-4-1.6c-1-1.1-1.5-2.5-1.5-4.2c0-1.8,0.5-3.3,1.6-4.4
					c1-1.1,2.4-1.7,4.2-1.7c1.6,0,2.9,0.5,4,1.6c1,1.1,1.5,2.5,1.5,4.2c0,1.8-0.5,3.2-1.6,4.3C136.1,19.5,134.7,20.1,133,20.1z
					 M133.1,10.5c-0.9,0-1.6,0.3-2.2,1c-0.5,0.7-0.8,1.6-0.8,2.7c0,1.1,0.3,2,0.8,2.7c0.5,0.7,1.2,1,2.1,1c0.9,0,1.6-0.3,2.1-1
					c0.5-0.6,0.8-1.5,0.8-2.7c0-1.2-0.3-2.1-0.8-2.8C134.7,10.8,134,10.5,133.1,10.5z"/>
				<path id="XMLID_617_" class="st0" d="M150.8,19.9h-2.6l-4.7-7.2c-0.3-0.4-0.5-0.7-0.6-0.9h0c0,0.4,0.1,1,0.1,1.8v6.3h-2.4V8.5
					h2.8l4.5,7c0.2,0.3,0.4,0.6,0.6,0.9h0c0-0.3-0.1-0.8-0.1-1.6V8.5h2.4V19.9z"/>
				<path id="XMLID_614_" class="st0" d="M84.5,34.5h-2.8l-0.8-2.5h-4.1L76,34.5h-2.8l4.2-11.4h3.1L84.5,34.5z M80.3,30L79,26.1
					c-0.1-0.3-0.2-0.6-0.2-1h-0.1c0,0.3-0.1,0.7-0.2,1L77.3,30H80.3z"/>
				<path id="XMLID_611_" class="st0" d="M88.5,30.5v3.9h-2.6V23.1h4c2.9,0,4.3,1.2,4.3,3.6c0,1.1-0.4,2.1-1.2,2.8
					c-0.8,0.7-1.9,1.1-3.3,1.1H88.5z M88.5,25v3.6h1c1.4,0,2.1-0.6,2.1-1.8c0-1.2-0.7-1.8-2.1-1.8H88.5z"/>
				<path id="XMLID_608_" class="st0" d="M98.5,30.5v3.9h-2.6V23.1h4c2.9,0,4.3,1.2,4.3,3.6c0,1.1-0.4,2.1-1.2,2.8
					c-0.8,0.7-1.9,1.1-3.3,1.1H98.5z M98.5,25v3.6h1c1.4,0,2.1-0.6,2.1-1.8c0-1.2-0.7-1.8-2.1-1.8H98.5z"/>
				<path id="XMLID_606_" class="st0" d="M112.7,34.5h-6.8V23.1h2.6v9.3h4.2V34.5z"/>
				<path id="XMLID_604_" class="st0" d="M119,23.1v2h-1v7.4h1v2h-4.5v-2h1V25h-1v-2H119z"/>
				<path id="XMLID_602_" class="st0" d="M130.1,34.1c-0.8,0.4-1.9,0.6-3.3,0.6c-1.8,0-3.1-0.5-4.1-1.5c-1-1-1.5-2.4-1.5-4.1
					c0-1.8,0.6-3.3,1.7-4.4c1.1-1.1,2.6-1.7,4.4-1.7c1.1,0,2.1,0.1,2.8,0.4v2.5c-0.8-0.5-1.6-0.7-2.6-0.7c-1.1,0-1.9,0.3-2.6,1
					c-0.7,0.7-1,1.6-1,2.7c0,1.1,0.3,2,0.9,2.6c0.6,0.7,1.5,1,2.5,1c1,0,1.9-0.2,2.8-0.7V34.1z"/>
				<path id="XMLID_599_" class="st0" d="M142.1,34.5h-2.8l-0.8-2.5h-4.1l-0.8,2.5h-2.8l4.2-11.4h3.1L142.1,34.5z M137.9,30
					l-1.2-3.8c-0.1-0.3-0.2-0.6-0.2-1h-0.1c0,0.3-0.1,0.7-0.2,1L135,30H137.9z"/>
				<path id="XMLID_597_" class="st0" d="M150.3,25.1h-3.3v9.3h-2.6v-9.3h-3.2v-2.1h9.1V25.1z"/>
				<path id="XMLID_595_" class="st0" d="M156.6,23.1v2h-1v7.4h1v2h-4.5v-2h1V25h-1v-2H156.6z"/>
				<path id="XMLID_592_" class="st0" d="M163.9,34.7c-1.6,0-3-0.5-4-1.6c-1-1.1-1.5-2.5-1.5-4.2c0-1.8,0.5-3.3,1.6-4.4
					c1-1.1,2.4-1.7,4.2-1.7c1.6,0,2.9,0.5,4,1.6c1,1.1,1.5,2.5,1.5,4.2c0,1.8-0.5,3.2-1.6,4.3C166.9,34.1,165.6,34.7,163.9,34.7z
					 M164,25.1c-0.9,0-1.6,0.3-2.2,1c-0.5,0.7-0.8,1.6-0.8,2.7c0,1.1,0.3,2,0.8,2.7c0.5,0.7,1.2,1,2.1,1c0.9,0,1.6-0.3,2.1-1
					c0.5-0.6,0.8-1.5,0.8-2.7c0-1.2-0.3-2.1-0.8-2.8C165.6,25.4,164.9,25.1,164,25.1z"/>
				<path id="XMLID_590_" class="st0" d="M181.6,34.5H179l-4.7-7.2c-0.3-0.4-0.5-0.7-0.6-0.9h0c0,0.4,0.1,1,0.1,1.8v6.3h-2.4V23.1
					h2.8l4.5,7c0.2,0.3,0.4,0.6,0.6,0.9h0c0-0.3-0.1-0.8-0.1-1.6v-6.3h2.4V34.5z"/>
				<path id="XMLID_587_" class="st0" d="M77,45.1v3.9h-2.6V37.6h4c2.9,0,4.3,1.2,4.3,3.6c0,1.1-0.4,2.1-1.2,2.8
					c-0.8,0.7-1.9,1.1-3.3,1.1H77z M77,39.6v3.6h1c1.4,0,2.1-0.6,2.1-1.8c0-1.2-0.7-1.8-2.1-1.8H77z"/>
				<path id="XMLID_584_" class="st0" d="M89.3,49.3c-1.6,0-3-0.5-4-1.6c-1-1.1-1.5-2.5-1.5-4.2c0-1.8,0.5-3.3,1.6-4.4
					c1-1.1,2.4-1.7,4.2-1.7c1.6,0,2.9,0.5,4,1.6c1,1.1,1.5,2.5,1.5,4.2c0,1.8-0.5,3.2-1.6,4.3C92.3,48.7,90.9,49.3,89.3,49.3z
					 M89.4,39.7c-0.9,0-1.6,0.3-2.2,1s-0.8,1.6-0.8,2.7c0,1.1,0.3,2,0.8,2.7c0.5,0.7,1.2,1,2.1,1c0.9,0,1.6-0.3,2.1-1
					s0.8-1.5,0.8-2.7c0-1.2-0.3-2.1-0.8-2.8C90.9,40,90.3,39.7,89.4,39.7z"/>
				<path id="XMLID_581_" class="st0" d="M105.9,49.1h-3l-1.8-2.9c-0.1-0.2-0.3-0.4-0.4-0.6c-0.1-0.2-0.2-0.3-0.4-0.4
					c-0.1-0.1-0.3-0.2-0.4-0.3c-0.1-0.1-0.3-0.1-0.4-0.1h-0.7v4.4h-2.6V37.6h4.1c2.8,0,4.2,1,4.2,3.1c0,0.4-0.1,0.8-0.2,1.1
					c-0.1,0.3-0.3,0.6-0.5,0.9c-0.2,0.3-0.5,0.5-0.8,0.7c-0.3,0.2-0.7,0.4-1.1,0.5v0c0.2,0.1,0.3,0.1,0.5,0.3
					c0.2,0.1,0.3,0.3,0.5,0.4c0.1,0.2,0.3,0.3,0.4,0.5c0.1,0.2,0.3,0.4,0.4,0.5L105.9,49.1z M98.9,39.6v3.2h1.1c0.6,0,1-0.2,1.3-0.5
					c0.3-0.3,0.5-0.7,0.5-1.2c0-1-0.6-1.5-1.8-1.5H98.9z"/>
				<path id="XMLID_579_" class="st0" d="M115,39.7h-3.3v9.3h-2.6v-9.3h-3.2v-2.1h9.1V39.7z"/>
				<path id="XMLID_576_" class="st0" d="M124.6,49.1h-2.8l-0.8-2.5h-4.1l-0.8,2.5h-2.8l4.2-11.4h3.1L124.6,49.1z M120.4,44.5
					l-1.2-3.8c-0.1-0.3-0.2-0.6-0.2-1h-0.1c0,0.3-0.1,0.7-0.2,1l-1.2,3.9H120.4z"/>
				<path id="XMLID_574_" class="st0" d="M132.8,49.1H126V37.6h2.6V47h4.2V49.1z"/>
			</g>
		</g>
		<path id="XMLID_11_" class="st1" d="M43,11.8c-0.2,0-0.5,0-0.7,0l0,0H4.2v8.5h20.6h18h0.7C56.1,20.6,66.6,31,68.5,44.7
			c0.2-1.3,0.3-2.7,0.3-4.1C68.8,24.7,57.2,11.8,43,11.8z"/>
		<path id="XMLID_10_" class="st2" d="M43,29.1L43,29.1L4.2,29v8.5h8.9h9.1h22.6v0c0.3,0,0.6,0,1,0c11.8,0,21.6,6.4,22.9,14.5
			C67.2,39.4,56.4,29.5,43,29.1z"/>
		<path id="XMLID_9_" class="st0" d="M45,3.9c-6,0-11.5,2.3-15.7,6h12.1c2.2-0.8,4.5-1.2,7-1.2c11.1,0,20.2,8.9,20.5,20.1
			c0-0.2,0-0.5,0-0.7C68.8,14.7,58.1,3.9,45,3.9z"/>
		<g id="XMLID_6_">
			<path id="XMLID_8_" class="st0" d="M48.3,50.1c-7.7,0-14.4-4.3-17.9-10.6H24c4,7.5,11.9,12.6,21,12.6c7,0,13.2-3,17.6-7.8
				C58.9,47.9,53.8,50.1,48.3,50.1z"/>
			<path id="XMLID_7_" class="st0" d="M27.9,27.1c0.2-1.7,0.5-3.2,1.1-4.8h-7.2c-0.4,1.5-0.6,3.1-0.7,4.8H27.9z"/>
		</g>
	</g>
	<g id="XMLID_12_">
		<g id="XMLID_796_">
			<path id="XMLID_889_" class="st0" d="M215.3,21h-3.4v3h3.2v0.9h-3.2v3.9h-1v-8.8h4.4V21z"/>
			<path id="XMLID_886_" class="st0" d="M219.4,29c-0.9,0-1.7-0.3-2.2-0.9c-0.6-0.6-0.8-1.4-0.8-2.3c0-1,0.3-1.9,0.9-2.5
				c0.6-0.6,1.3-0.9,2.3-0.9c0.9,0,1.7,0.3,2.2,0.9c0.5,0.6,0.8,1.4,0.8,2.4c0,1-0.3,1.8-0.8,2.4C221.2,28.7,220.4,29,219.4,29z
				 M219.5,23.3c-0.6,0-1.2,0.2-1.5,0.7c-0.4,0.4-0.6,1-0.6,1.8c0,0.7,0.2,1.3,0.6,1.8c0.4,0.4,0.9,0.6,1.5,0.6
				c0.6,0,1.1-0.2,1.5-0.6c0.3-0.4,0.5-1,0.5-1.8c0-0.8-0.2-1.4-0.5-1.8C220.7,23.5,220.2,23.3,219.5,23.3z"/>
			<path id="XMLID_884_" class="st0" d="M227.4,23.6c-0.2-0.1-0.4-0.2-0.8-0.2c-0.4,0-0.8,0.2-1.1,0.6c-0.3,0.4-0.4,1-0.4,1.6v3.2
				h-1v-6.3h1v1.3h0c0.1-0.4,0.4-0.8,0.7-1c0.3-0.2,0.6-0.4,1-0.4c0.3,0,0.5,0,0.6,0.1V23.6z"/>
			<path id="XMLID_882_" class="st0" d="M233.9,20.1v0.9h-0.9v7h0.9v0.9h-2.7v-0.9h0.9v-7h-0.9v-0.9H233.9z"/>
			<path id="XMLID_880_" class="st0" d="M240.4,28.8h-1v-3.6c0-1.3-0.5-2-1.5-2c-0.5,0-0.9,0.2-1.2,0.6c-0.3,0.4-0.5,0.9-0.5,1.4
				v3.6h-1v-6.3h1v1h0c0.5-0.8,1.2-1.2,2.1-1.2c0.7,0,1.2,0.2,1.6,0.7c0.4,0.4,0.5,1.1,0.5,1.9V28.8z"/>
			<path id="XMLID_877_" class="st0" d="M247.7,28.8h-1v-1.1h0c-0.5,0.8-1.2,1.2-2.1,1.2c-0.8,0-1.4-0.3-1.9-0.8
				c-0.5-0.6-0.7-1.3-0.7-2.3c0-1,0.3-1.9,0.8-2.5c0.5-0.6,1.2-0.9,2.1-0.9c0.9,0,1.5,0.3,1.9,1h0v-3.9h1V28.8z M246.7,26v-0.9
				c0-0.5-0.2-0.9-0.5-1.3c-0.3-0.4-0.8-0.5-1.3-0.5c-0.6,0-1.1,0.2-1.4,0.7c-0.4,0.4-0.5,1.1-0.5,1.9c0,0.7,0.2,1.3,0.5,1.7
				c0.3,0.4,0.8,0.6,1.4,0.6c0.6,0,1-0.2,1.4-0.6C246.5,27.1,246.7,26.6,246.7,26z"/>
			<path id="XMLID_874_" class="st0" d="M250.2,21c-0.2,0-0.3-0.1-0.5-0.2c-0.1-0.1-0.2-0.3-0.2-0.5c0-0.2,0.1-0.3,0.2-0.5
				c0.1-0.1,0.3-0.2,0.5-0.2c0.2,0,0.3,0.1,0.5,0.2c0.1,0.1,0.2,0.3,0.2,0.5c0,0.2-0.1,0.3-0.2,0.5C250.5,20.9,250.4,21,250.2,21z
				 M250.7,28.8h-1v-6.3h1V28.8z"/>
			<path id="XMLID_871_" class="st0" d="M257.2,28.8h-1v-1h0c-0.4,0.7-1.1,1.1-1.9,1.1c-0.6,0-1.1-0.2-1.5-0.5
				c-0.4-0.3-0.5-0.8-0.5-1.3c0-1.2,0.7-1.8,2.1-2l1.9-0.3c0-1.1-0.4-1.6-1.3-1.6c-0.8,0-1.4,0.3-2,0.8v-1c0.6-0.4,1.3-0.6,2.1-0.6
				c1.5,0,2.2,0.8,2.2,2.3V28.8z M256.2,25.6l-1.5,0.2c-0.5,0.1-0.8,0.2-1,0.3c-0.2,0.2-0.4,0.5-0.4,0.9c0,0.3,0.1,0.6,0.3,0.7
				c0.2,0.2,0.5,0.3,0.9,0.3c0.5,0,0.9-0.2,1.2-0.5c0.3-0.3,0.5-0.8,0.5-1.3V25.6z"/>
			<path id="XMLID_869_" class="st0" d="M264.3,28.8h-1v-3.6c0-1.3-0.5-2-1.5-2c-0.5,0-0.9,0.2-1.2,0.6c-0.3,0.4-0.5,0.9-0.5,1.4
				v3.6h-1v-6.3h1v1h0c0.5-0.8,1.2-1.2,2.1-1.2c0.7,0,1.2,0.2,1.6,0.7c0.4,0.4,0.5,1.1,0.5,1.9V28.8z"/>
			<path id="XMLID_867_" class="st0" d="M271.6,20.1v0.9h-0.9v7h0.9v0.9h-2.7v-0.9h0.9v-7h-0.9v-0.9H271.6z"/>
			<path id="XMLID_865_" class="st0" d="M278.1,28.8h-1v-3.6c0-1.3-0.5-2-1.5-2c-0.5,0-0.9,0.2-1.2,0.6c-0.3,0.4-0.5,0.9-0.5,1.4
				v3.6h-1v-6.3h1v1h0c0.5-0.8,1.2-1.2,2.1-1.2c0.7,0,1.2,0.2,1.6,0.7c0.4,0.4,0.5,1.1,0.5,1.9V28.8z"/>
			<path id="XMLID_863_" class="st0" d="M279.6,28.6v-1.1c0.5,0.4,1.1,0.6,1.8,0.6c0.9,0,1.3-0.3,1.3-0.9c0-0.2,0-0.3-0.1-0.4
				c-0.1-0.1-0.2-0.2-0.3-0.3c-0.1-0.1-0.3-0.2-0.5-0.2c-0.2-0.1-0.4-0.1-0.6-0.2c-0.3-0.1-0.5-0.2-0.7-0.3
				c-0.2-0.1-0.4-0.2-0.5-0.4c-0.1-0.1-0.2-0.3-0.3-0.5c-0.1-0.2-0.1-0.4-0.1-0.6c0-0.3,0.1-0.6,0.2-0.8c0.1-0.2,0.3-0.4,0.5-0.6
				c0.2-0.2,0.5-0.3,0.8-0.3c0.3-0.1,0.6-0.1,0.9-0.1c0.5,0,1,0.1,1.5,0.3v1c-0.5-0.3-1-0.5-1.6-0.5c-0.2,0-0.4,0-0.5,0.1
				c-0.2,0-0.3,0.1-0.4,0.2c-0.1,0.1-0.2,0.2-0.3,0.3c-0.1,0.1-0.1,0.2-0.1,0.4c0,0.2,0,0.3,0.1,0.4c0.1,0.1,0.1,0.2,0.3,0.3
				c0.1,0.1,0.3,0.2,0.4,0.2c0.2,0.1,0.3,0.1,0.6,0.2c0.3,0.1,0.5,0.2,0.7,0.3c0.2,0.1,0.4,0.2,0.6,0.4c0.2,0.1,0.3,0.3,0.4,0.5
				c0.1,0.2,0.1,0.4,0.1,0.7c0,0.3-0.1,0.6-0.2,0.8c-0.1,0.2-0.3,0.4-0.5,0.6c-0.2,0.2-0.5,0.3-0.8,0.3c-0.3,0.1-0.6,0.1-0.9,0.1
				C280.6,29,280.1,28.8,279.6,28.6z"/>
			<path id="XMLID_861_" class="st0" d="M288.2,28.7c-0.2,0.1-0.5,0.2-0.9,0.2c-1.1,0-1.6-0.6-1.6-1.8v-3.7h-1.1v-0.9h1.1V21l1-0.3
				v1.8h1.6v0.9h-1.6v3.5c0,0.4,0.1,0.7,0.2,0.9c0.1,0.2,0.4,0.3,0.7,0.3c0.3,0,0.5-0.1,0.7-0.2V28.7z"/>
			<path id="XMLID_858_" class="st0" d="M290,21c-0.2,0-0.3-0.1-0.5-0.2c-0.1-0.1-0.2-0.3-0.2-0.5c0-0.2,0.1-0.3,0.2-0.5
				c0.1-0.1,0.3-0.2,0.5-0.2c0.2,0,0.3,0.1,0.5,0.2c0.1,0.1,0.2,0.3,0.2,0.5c0,0.2-0.1,0.3-0.2,0.5C290.4,20.9,290.2,21,290,21z
				 M290.5,28.8h-1v-6.3h1V28.8z"/>
			<path id="XMLID_856_" class="st0" d="M295.4,28.7c-0.2,0.1-0.5,0.2-0.9,0.2c-1.1,0-1.6-0.6-1.6-1.8v-3.7h-1.1v-0.9h1.1V21l1-0.3
				v1.8h1.6v0.9h-1.6v3.5c0,0.4,0.1,0.7,0.2,0.9s0.4,0.3,0.7,0.3c0.3,0,0.5-0.1,0.7-0.2V28.7z"/>
			<path id="XMLID_854_" class="st0" d="M301.8,28.8h-1v-1h0c-0.4,0.8-1.1,1.1-1.9,1.1c-1.5,0-2.2-0.9-2.2-2.7v-3.7h1v3.6
				c0,1.3,0.5,2,1.5,2c0.5,0,0.9-0.2,1.2-0.5c0.3-0.4,0.5-0.8,0.5-1.4v-3.6h1V28.8z"/>
			<path id="XMLID_852_" class="st0" d="M306.8,28.7c-0.2,0.1-0.5,0.2-0.9,0.2c-1.1,0-1.6-0.6-1.6-1.8v-3.7h-1.1v-0.9h1.1V21l1-0.3
				v1.8h1.6v0.9h-1.6v3.5c0,0.4,0.1,0.7,0.2,0.9c0.1,0.2,0.4,0.3,0.7,0.3c0.3,0,0.5-0.1,0.7-0.2V28.7z"/>
			<path id="XMLID_849_" class="st0" d="M313.1,25.9h-4.4c0,0.7,0.2,1.2,0.6,1.6c0.4,0.4,0.9,0.6,1.5,0.6c0.7,0,1.4-0.2,1.9-0.7v0.9
				c-0.5,0.4-1.3,0.6-2.2,0.6c-0.9,0-1.6-0.3-2.1-0.9c-0.5-0.6-0.8-1.4-0.8-2.4c0-1,0.3-1.8,0.8-2.4c0.6-0.6,1.2-0.9,2.1-0.9
				c0.8,0,1.5,0.3,1.9,0.8c0.4,0.5,0.7,1.3,0.7,2.2V25.9z M312.1,25.1c0-0.6-0.1-1-0.4-1.3c-0.3-0.3-0.7-0.5-1.1-0.5
				c-0.5,0-0.9,0.2-1.2,0.5c-0.3,0.3-0.5,0.8-0.6,1.3H312.1z"/>
			<path id="XMLID_847_" class="st0" d="M314.3,28.6v-1.1c0.5,0.4,1.1,0.6,1.8,0.6c0.9,0,1.3-0.3,1.3-0.9c0-0.2,0-0.3-0.1-0.4
				c-0.1-0.1-0.2-0.2-0.3-0.3c-0.1-0.1-0.3-0.2-0.5-0.2c-0.2-0.1-0.4-0.1-0.6-0.2c-0.3-0.1-0.5-0.2-0.7-0.3
				c-0.2-0.1-0.4-0.2-0.5-0.4c-0.1-0.1-0.2-0.3-0.3-0.5c-0.1-0.2-0.1-0.4-0.1-0.6c0-0.3,0.1-0.6,0.2-0.8c0.1-0.2,0.3-0.4,0.5-0.6
				c0.2-0.2,0.5-0.3,0.8-0.3c0.3-0.1,0.6-0.1,0.9-0.1c0.5,0,1,0.1,1.5,0.3v1c-0.5-0.3-1-0.5-1.6-0.5c-0.2,0-0.4,0-0.5,0.1
				c-0.2,0-0.3,0.1-0.4,0.2c-0.1,0.1-0.2,0.2-0.3,0.3c-0.1,0.1-0.1,0.2-0.1,0.4c0,0.2,0,0.3,0.1,0.4c0.1,0.1,0.1,0.2,0.3,0.3
				c0.1,0.1,0.3,0.2,0.4,0.2c0.2,0.1,0.3,0.1,0.6,0.2c0.3,0.1,0.5,0.2,0.7,0.3c0.2,0.1,0.4,0.2,0.6,0.4c0.2,0.1,0.3,0.3,0.4,0.5
				c0.1,0.2,0.1,0.4,0.1,0.7c0,0.3-0.1,0.6-0.2,0.8c-0.1,0.2-0.3,0.4-0.5,0.6c-0.2,0.2-0.5,0.3-0.8,0.3c-0.3,0.1-0.6,0.1-0.9,0.1
				C315.3,29,314.7,28.8,314.3,28.6z"/>
			<path id="XMLID_844_" class="st0" d="M326,29c-0.9,0-1.7-0.3-2.2-0.9c-0.6-0.6-0.8-1.4-0.8-2.3c0-1,0.3-1.9,0.9-2.5
				c0.6-0.6,1.3-0.9,2.3-0.9c0.9,0,1.7,0.3,2.2,0.9c0.5,0.6,0.8,1.4,0.8,2.4c0,1-0.3,1.8-0.8,2.4C327.7,28.7,326.9,29,326,29z
				 M326,23.3c-0.6,0-1.2,0.2-1.5,0.7c-0.4,0.4-0.6,1-0.6,1.8c0,0.7,0.2,1.3,0.6,1.8c0.4,0.4,0.9,0.6,1.5,0.6c0.6,0,1.1-0.2,1.5-0.6
				c0.3-0.4,0.5-1,0.5-1.8c0-0.8-0.2-1.4-0.5-1.8C327.2,23.5,326.7,23.3,326,23.3z"/>
			<path id="XMLID_842_" class="st0" d="M333.8,20.4c-0.2-0.1-0.4-0.2-0.7-0.2c-0.7,0-1,0.4-1,1.3v1h1.5v0.9h-1.5v5.4h-1v-5.4H330
				v-0.9h1.1v-1c0-0.7,0.2-1.2,0.6-1.6c0.4-0.4,0.9-0.6,1.4-0.6c0.3,0,0.5,0,0.7,0.1V20.4z"/>
			<path id="XMLID_840_" class="st0" d="M210.5,39.8v-1.2c0.1,0.1,0.3,0.2,0.5,0.3c0.2,0.1,0.4,0.2,0.6,0.2c0.2,0.1,0.4,0.1,0.6,0.2
				c0.2,0,0.4,0.1,0.6,0.1c0.6,0,1.1-0.1,1.4-0.4c0.3-0.2,0.5-0.6,0.5-1c0-0.2-0.1-0.4-0.2-0.6c-0.1-0.2-0.2-0.3-0.4-0.5
				c-0.2-0.1-0.4-0.3-0.6-0.4c-0.3-0.1-0.5-0.3-0.8-0.4c-0.3-0.2-0.6-0.3-0.9-0.5c-0.3-0.2-0.5-0.3-0.7-0.5
				c-0.2-0.2-0.3-0.4-0.5-0.7c-0.1-0.2-0.2-0.5-0.2-0.9c0-0.4,0.1-0.7,0.3-1c0.2-0.3,0.4-0.5,0.7-0.7c0.3-0.2,0.6-0.3,1-0.4
				c0.4-0.1,0.7-0.1,1.1-0.1c0.9,0,1.5,0.1,1.9,0.3v1.2c-0.5-0.4-1.2-0.5-2-0.5c-0.2,0-0.4,0-0.7,0.1c-0.2,0-0.4,0.1-0.6,0.2
				c-0.2,0.1-0.3,0.2-0.4,0.4c-0.1,0.2-0.2,0.4-0.2,0.6c0,0.2,0,0.4,0.1,0.6c0.1,0.2,0.2,0.3,0.4,0.4c0.2,0.1,0.4,0.3,0.6,0.4
				c0.2,0.1,0.5,0.3,0.8,0.4c0.3,0.2,0.6,0.3,0.9,0.5c0.3,0.2,0.5,0.4,0.7,0.6c0.2,0.2,0.4,0.4,0.5,0.7c0.1,0.3,0.2,0.5,0.2,0.9
				c0,0.4-0.1,0.8-0.3,1.1c-0.2,0.3-0.4,0.5-0.7,0.7c-0.3,0.2-0.6,0.3-1,0.4c-0.4,0.1-0.8,0.1-1.2,0.1c-0.1,0-0.3,0-0.5,0
				c-0.2,0-0.4-0.1-0.6-0.1c-0.2,0-0.4-0.1-0.6-0.2C210.7,40,210.6,39.9,210.5,39.8z"/>
			<path id="XMLID_838_" class="st0" d="M221.6,39.9c-0.5,0.3-1,0.4-1.7,0.4c-0.9,0-1.6-0.3-2.2-0.9c-0.5-0.6-0.8-1.3-0.8-2.3
				c0-1,0.3-1.9,0.9-2.5c0.6-0.6,1.4-0.9,2.4-0.9c0.5,0,1,0.1,1.5,0.3v1c-0.5-0.3-1-0.5-1.5-0.5c-0.6,0-1.2,0.2-1.6,0.7
				c-0.4,0.5-0.6,1.1-0.6,1.8c0,0.7,0.2,1.3,0.6,1.7c0.4,0.4,0.9,0.6,1.5,0.6c0.5,0,1.1-0.2,1.5-0.5V39.9z"/>
			<path id="XMLID_835_" class="st0" d="M223.7,32.3c-0.2,0-0.3-0.1-0.5-0.2c-0.1-0.1-0.2-0.3-0.2-0.5c0-0.2,0.1-0.3,0.2-0.5
				c0.1-0.1,0.3-0.2,0.5-0.2c0.2,0,0.3,0.1,0.5,0.2c0.1,0.1,0.2,0.3,0.2,0.5c0,0.2-0.1,0.3-0.2,0.5C224,32.3,223.8,32.3,223.7,32.3z
				 M224.1,40.2h-1v-6.3h1V40.2z"/>
			<path id="XMLID_832_" class="st0" d="M231.2,37.3h-4.4c0,0.7,0.2,1.2,0.6,1.6c0.4,0.4,0.9,0.6,1.5,0.6c0.7,0,1.4-0.2,1.9-0.7v0.9
				c-0.5,0.4-1.3,0.6-2.2,0.6c-0.9,0-1.6-0.3-2.1-0.9c-0.5-0.6-0.8-1.4-0.8-2.4c0-1,0.3-1.8,0.8-2.4c0.6-0.6,1.2-0.9,2.1-0.9
				c0.8,0,1.5,0.3,1.9,0.8c0.4,0.5,0.7,1.3,0.7,2.2V37.3z M230.2,36.5c0-0.6-0.1-1-0.4-1.3c-0.3-0.3-0.7-0.5-1.1-0.5
				c-0.5,0-0.9,0.2-1.2,0.5c-0.3,0.3-0.5,0.8-0.6,1.3H230.2z"/>
			<path id="XMLID_830_" class="st0" d="M237.9,40.2h-1v-3.6c0-1.3-0.5-2-1.5-2c-0.5,0-0.9,0.2-1.2,0.6c-0.3,0.4-0.5,0.9-0.5,1.4
				v3.6h-1v-6.3h1v1h0c0.5-0.8,1.2-1.2,2.1-1.2c0.7,0,1.2,0.2,1.6,0.7c0.4,0.4,0.5,1.1,0.5,1.9V40.2z"/>
			<path id="XMLID_828_" class="st0" d="M244,39.9c-0.5,0.3-1,0.4-1.7,0.4c-0.9,0-1.6-0.3-2.2-0.9c-0.5-0.6-0.8-1.3-0.8-2.3
				c0-1,0.3-1.9,0.9-2.5c0.6-0.6,1.4-0.9,2.4-0.9c0.5,0,1,0.1,1.5,0.3v1c-0.5-0.3-1-0.5-1.5-0.5c-0.6,0-1.2,0.2-1.6,0.7
				c-0.4,0.5-0.6,1.1-0.6,1.8c0,0.7,0.2,1.3,0.6,1.7c0.4,0.4,0.9,0.6,1.5,0.6c0.5,0,1.1-0.2,1.5-0.5V39.9z"/>
			<path id="XMLID_825_" class="st0" d="M250.6,37.3h-4.4c0,0.7,0.2,1.2,0.6,1.6c0.4,0.4,0.9,0.6,1.5,0.6c0.7,0,1.4-0.2,1.9-0.7v0.9
				c-0.5,0.4-1.3,0.6-2.2,0.6c-0.9,0-1.6-0.3-2.1-0.9c-0.5-0.6-0.8-1.4-0.8-2.4c0-1,0.3-1.8,0.8-2.4c0.6-0.6,1.2-0.9,2.1-0.9
				c0.8,0,1.5,0.3,1.9,0.8c0.4,0.5,0.7,1.3,0.7,2.2V37.3z M249.6,36.5c0-0.6-0.1-1-0.4-1.3c-0.3-0.3-0.7-0.5-1.1-0.5
				c-0.5,0-0.9,0.2-1.2,0.5c-0.3,0.3-0.5,0.8-0.6,1.3H249.6z"/>
			<path id="XMLID_821_" class="st0" d="M263.3,40.3c-0.2,0-0.4,0-0.6-0.1c-0.2-0.1-0.3-0.2-0.5-0.3c-0.2-0.1-0.3-0.3-0.4-0.4
				c-0.1-0.2-0.3-0.4-0.4-0.6c-0.2,0.2-0.4,0.3-0.6,0.5c-0.2,0.2-0.5,0.3-0.7,0.4c-0.3,0.1-0.5,0.2-0.9,0.3c-0.3,0.1-0.6,0.1-1,0.1
				c-0.4,0-0.8-0.1-1.2-0.2c-0.4-0.1-0.7-0.3-0.9-0.5c-0.3-0.2-0.5-0.5-0.6-0.8c-0.1-0.3-0.2-0.7-0.2-1.1c0-0.6,0.2-1.2,0.5-1.6
				c0.4-0.4,0.9-0.8,1.5-1.1c-0.1-0.1-0.2-0.2-0.4-0.3c-0.1-0.1-0.2-0.3-0.3-0.4c-0.1-0.2-0.2-0.3-0.2-0.5c-0.1-0.2-0.1-0.4-0.1-0.6
				c0-0.3,0.1-0.6,0.2-0.9c0.1-0.2,0.3-0.5,0.5-0.6c0.2-0.2,0.4-0.3,0.7-0.4c0.3-0.1,0.6-0.1,0.9-0.1c0.3,0,0.6,0,0.9,0.1
				c0.3,0.1,0.5,0.2,0.7,0.4c0.2,0.2,0.3,0.4,0.4,0.6c0.1,0.2,0.2,0.5,0.2,0.8c0,0.5-0.1,0.9-0.4,1.2c-0.3,0.3-0.7,0.6-1.3,0.8
				c0.3,0.1,0.5,0.2,0.8,0.4c0.2,0.2,0.4,0.3,0.6,0.5c0.2,0.2,0.4,0.4,0.5,0.6c0.2,0.2,0.3,0.5,0.5,0.7c0.3-0.5,0.6-1,0.7-1.5
				c0.2-0.6,0.3-1.1,0.3-1.7c0-0.2,0-0.3,0-0.4c0-0.1,0-0.3-0.1-0.4h1c0,0.1,0.1,0.3,0.1,0.4c0,0.1,0,0.3,0,0.4c0,0.4,0,0.7-0.1,1.1
				c-0.1,0.4-0.2,0.7-0.3,1.1c-0.1,0.4-0.3,0.7-0.5,1c-0.2,0.3-0.4,0.6-0.5,0.9c0.1,0.2,0.3,0.4,0.4,0.5c0.1,0.1,0.2,0.3,0.4,0.4
				c0.1,0.1,0.2,0.2,0.4,0.2c0.1,0,0.3,0.1,0.4,0.1c0.1,0,0.2,0,0.4,0c0.1,0,0.3-0.1,0.4-0.1v0.9c-0.1,0.1-0.3,0.1-0.5,0.1
				C263.6,40.3,263.5,40.3,263.3,40.3z M258.2,39.5c0.3,0,0.6,0,0.9-0.1c0.3-0.1,0.5-0.2,0.7-0.3c0.2-0.1,0.4-0.2,0.6-0.4
				c0.2-0.1,0.3-0.3,0.5-0.5c-0.2-0.4-0.5-0.7-0.7-1c-0.2-0.3-0.4-0.5-0.6-0.7c-0.2-0.2-0.4-0.4-0.7-0.5c-0.2-0.1-0.5-0.3-0.8-0.4
				c-0.3,0.1-0.5,0.2-0.7,0.3c-0.2,0.1-0.4,0.3-0.6,0.4c-0.2,0.2-0.3,0.4-0.4,0.6c-0.1,0.2-0.1,0.5-0.1,0.8c0,0.3,0.1,0.5,0.2,0.7
				c0.1,0.2,0.2,0.4,0.4,0.5c0.2,0.1,0.4,0.2,0.6,0.3C257.7,39.4,257.9,39.5,258.2,39.5z M259.7,33.2c0-0.2,0-0.4-0.1-0.5
				c-0.1-0.1-0.2-0.3-0.3-0.4c-0.1-0.1-0.2-0.2-0.4-0.2c-0.1,0-0.3-0.1-0.4-0.1c-0.4,0-0.7,0.1-1,0.3c-0.2,0.2-0.4,0.5-0.4,0.9
				c0,0.2,0,0.3,0.1,0.5c0.1,0.1,0.1,0.3,0.2,0.4c0.1,0.1,0.2,0.2,0.3,0.3c0.1,0.1,0.3,0.2,0.4,0.3c0.5-0.2,0.9-0.4,1.1-0.6
				C259.6,33.9,259.7,33.6,259.7,33.2z"/>
			<path id="XMLID_819_" class="st0" d="M274.3,32.4h-2.5v7.8h-1v-7.8h-2.5v-0.9h6.1V32.4z"/>
			<path id="XMLID_816_" class="st0" d="M280.5,37.3h-4.4c0,0.7,0.2,1.2,0.6,1.6c0.4,0.4,0.9,0.6,1.5,0.6c0.7,0,1.4-0.2,1.9-0.7v0.9
				c-0.5,0.4-1.3,0.6-2.2,0.6c-0.9,0-1.6-0.3-2.1-0.9c-0.5-0.6-0.8-1.4-0.8-2.4c0-1,0.3-1.8,0.8-2.4c0.6-0.6,1.2-0.9,2.1-0.9
				c0.8,0,1.5,0.3,1.9,0.8c0.4,0.5,0.7,1.3,0.7,2.2V37.3z M279.5,36.5c0-0.6-0.1-1-0.4-1.3c-0.3-0.3-0.7-0.5-1.1-0.5
				c-0.5,0-0.9,0.2-1.2,0.5c-0.3,0.3-0.5,0.8-0.6,1.3H279.5z"/>
			<path id="XMLID_814_" class="st0" d="M286.3,39.9c-0.5,0.3-1,0.4-1.7,0.4c-0.9,0-1.6-0.3-2.2-0.9c-0.5-0.6-0.8-1.3-0.8-2.3
				c0-1,0.3-1.9,0.9-2.5c0.6-0.6,1.4-0.9,2.4-0.9c0.5,0,1,0.1,1.5,0.3v1c-0.5-0.3-1-0.5-1.5-0.5c-0.6,0-1.2,0.2-1.6,0.7
				c-0.4,0.5-0.6,1.1-0.6,1.8c0,0.7,0.2,1.3,0.6,1.7c0.4,0.4,0.9,0.6,1.5,0.6c0.5,0,1.1-0.2,1.5-0.5V39.9z"/>
			<path id="XMLID_812_" class="st0" d="M293,40.2h-1v-3.6c0-1.3-0.5-2-1.5-2c-0.5,0-0.9,0.2-1.2,0.6c-0.3,0.4-0.5,0.9-0.5,1.4v3.5
				h-1v-9.3h1v4h0c0.5-0.8,1.2-1.2,2.1-1.2c1.4,0,2.1,0.8,2.1,2.5V40.2z"/>
			<path id="XMLID_810_" class="st0" d="M300.1,40.2h-1v-3.6c0-1.3-0.5-2-1.5-2c-0.5,0-0.9,0.2-1.2,0.6c-0.3,0.4-0.5,0.9-0.5,1.4
				v3.6h-1v-6.3h1v1h0c0.5-0.8,1.2-1.2,2.1-1.2c0.7,0,1.2,0.2,1.6,0.7c0.4,0.4,0.5,1.1,0.5,1.9V40.2z"/>
			<path id="XMLID_807_" class="st0" d="M304.6,40.3c-0.9,0-1.7-0.3-2.2-0.9c-0.6-0.6-0.8-1.4-0.8-2.3c0-1,0.3-1.9,0.9-2.5
				c0.6-0.6,1.3-0.9,2.3-0.9c0.9,0,1.7,0.3,2.2,0.9c0.5,0.6,0.8,1.4,0.8,2.4c0,1-0.3,1.8-0.8,2.4C306.3,40,305.5,40.3,304.6,40.3z
				 M304.6,34.6c-0.6,0-1.2,0.2-1.5,0.7c-0.4,0.4-0.6,1-0.6,1.8c0,0.7,0.2,1.3,0.6,1.8c0.4,0.4,0.9,0.6,1.5,0.6
				c0.6,0,1.1-0.2,1.5-0.6c0.3-0.4,0.5-1,0.5-1.8c0-0.8-0.2-1.4-0.5-1.8C305.8,34.8,305.3,34.6,304.6,34.6z"/>
			<path id="XMLID_805_" class="st0" d="M310.3,40.2h-1v-9.3h1V40.2z"/>
			<path id="XMLID_802_" class="st0" d="M314.9,40.3c-0.9,0-1.7-0.3-2.2-0.9c-0.6-0.6-0.8-1.4-0.8-2.3c0-1,0.3-1.9,0.9-2.5
				c0.6-0.6,1.3-0.9,2.3-0.9c0.9,0,1.7,0.3,2.2,0.9c0.5,0.6,0.8,1.4,0.8,2.4c0,1-0.3,1.8-0.8,2.4C316.6,40,315.9,40.3,314.9,40.3z
				 M315,34.6c-0.6,0-1.2,0.2-1.5,0.7c-0.4,0.4-0.6,1-0.6,1.8c0,0.7,0.2,1.3,0.6,1.8c0.4,0.4,0.9,0.6,1.5,0.6c0.6,0,1.1-0.2,1.5-0.6
				s0.5-1,0.5-1.8c0-0.8-0.2-1.4-0.5-1.8C316.1,34.8,315.6,34.6,315,34.6z"/>
			<path id="XMLID_799_" class="st0" d="M325,39.7c0,2.3-1.1,3.4-3.3,3.4c-0.8,0-1.4-0.1-2-0.4v-1c0.7,0.4,1.4,0.6,2,0.6
				c1.5,0,2.3-0.8,2.3-2.5v-0.7h0c-0.5,0.8-1.2,1.2-2.1,1.2c-0.8,0-1.4-0.3-1.9-0.8c-0.5-0.6-0.7-1.3-0.7-2.2c0-1.1,0.3-1.9,0.8-2.5
				c0.5-0.6,1.2-0.9,2.1-0.9c0.8,0,1.5,0.3,1.9,1h0v-0.9h1V39.7z M324,37.4v-0.9c0-0.5-0.2-0.9-0.5-1.3c-0.3-0.4-0.8-0.5-1.3-0.5
				c-0.6,0-1.1,0.2-1.5,0.7c-0.4,0.5-0.5,1.1-0.5,1.9c0,0.7,0.2,1.3,0.5,1.7c0.3,0.4,0.8,0.6,1.3,0.6c0.6,0,1-0.2,1.4-0.6
				C323.8,38.5,324,38,324,37.4z"/>
			<path id="XMLID_797_" class="st0" d="M332,33.9l-2.9,7.3c-0.5,1.3-1.2,1.9-2.2,1.9c-0.3,0-0.5,0-0.7-0.1v-0.9
				c0.2,0.1,0.4,0.1,0.6,0.1c0.5,0,0.9-0.3,1.1-0.9l0.5-1.2l-2.4-6.2h1.1l1.7,4.8c0,0.1,0.1,0.2,0.1,0.5h0c0-0.1,0.1-0.3,0.1-0.5
				l1.8-4.8H332z"/>
		</g>
	</g>
	<g id="XMLID_13_">
		<rect id="XMLID_51_" x="197" y="8.2" class="st3" width="1" height="41.3"/>
	</g>
</g>
</svg>
