<?xml version="1.0" encoding="UTF-8" standalone="no"?>
<svg
   xmlns:dc="http://purl.org/dc/elements/1.1/"
   xmlns:cc="http://creativecommons.org/ns#"
   xmlns:rdf="http://www.w3.org/1999/02/22-rdf-syntax-ns#"
   xmlns:svg="http://www.w3.org/2000/svg"
   xmlns="http://www.w3.org/2000/svg"
   version="1.1"
   id="Layer_1"
   x="0px"
   y="0px"
   viewBox="0 0 339 56"
   style="enable-background:new 0 0 339 56;"
   xml:space="preserve"><metadata
   id="metadata85"><rdf:RDF><cc:Work
       rdf:about=""><dc:format>image/svg+xml</dc:format><dc:type
         rdf:resource="http://purl.org/dc/dcmitype/StillImage" /><dc:title></dc:title></cc:Work></rdf:RDF></metadata><defs
   id="defs83" />
<style
   type="text/css"
   id="style2">
	.st0{fill:#221D55;}
	.st1{fill:#F69433;}
	.st2{fill:#058161;}
	.st3{fill:#BCBEC0;}
</style>
<g
   id="XMLID_4_">
	<g
   id="XMLID_5_">
		<g
   id="XMLID_203_">
			<g
   id="XMLID_573_">
				<path
   id="XMLID_629_"
   class="st0"
   d="m 82.6,19.5 c -0.8,0.4 -1.9,0.6 -3.3,0.6 -1.8,0 -3.1,-0.5 -4.1,-1.5 -1,-1 -1.5,-2.4 -1.5,-4.1 0,-1.8 0.6,-3.3 1.7,-4.4 1.1,-1.1 2.6,-1.7 4.4,-1.7 1.1,0 2.1,0.1 2.8,0.4 v 2.5 C 81.8,10.8 81,10.6 80,10.6 c -1.1,0 -1.9,0.3 -2.6,1 -0.7,0.7 -1,1.6 -1,2.7 0,1.1 0.3,2 0.9,2.6 0.6,0.7 1.5,1 2.5,1 1,0 1.9,-0.2 2.8,-0.7 z"
   style="fill:#221d55" />
				<path
   id="XMLID_626_"
   class="st0"
   d="m 89.4,20.1 c -1.6,0 -3,-0.5 -4,-1.6 -1,-1.1 -1.5,-2.5 -1.5,-4.2 0,-1.8 0.5,-3.3 1.6,-4.4 1,-1.1 2.4,-1.7 4.2,-1.7 1.6,0 2.9,0.5 4,1.6 1,1.1 1.5,2.5 1.5,4.2 0,1.8 -0.5,3.2 -1.6,4.3 -1.1,1.2 -2.5,1.8 -4.2,1.8 z m 0.1,-9.6 c -0.9,0 -1.6,0.3 -2.2,1 -0.5,0.7 -0.8,1.6 -0.8,2.7 0,1.1 0.3,2 0.8,2.7 0.5,0.7 1.2,1 2.1,1 0.9,0 1.6,-0.3 2.1,-1 0.5,-0.6 0.8,-1.5 0.8,-2.7 0,-1.2 -0.3,-2.1 -0.8,-2.8 -0.4,-0.6 -1.1,-0.9 -2,-0.9 z"
   style="fill:#221d55" />
				<path
   id="XMLID_624_"
   class="st0"
   d="m 110,19.9 h -2.5 v -6.8 c 0,-0.7 0,-1.6 0.1,-2.4 h -0.1 c -0.1,0.7 -0.3,1.2 -0.4,1.5 l -2.7,7.8 h -2.1 l -2.7,-7.7 c -0.1,-0.2 -0.2,-0.7 -0.4,-1.6 h -0.1 c 0.1,1.1 0.1,2.1 0.1,3 V 20 H 97 V 8.5 h 3.8 l 2.3,6.8 c 0.2,0.5 0.3,1.1 0.4,1.6 v 0 c 0.1,-0.6 0.3,-1.2 0.5,-1.6 l 2.3,-6.8 h 3.7 z"
   style="fill:#221d55" />
				<path
   id="XMLID_622_"
   class="st0"
   d="m 125.6,19.9 h -2.5 v -6.8 c 0,-0.7 0,-1.6 0.1,-2.4 h -0.1 c -0.1,0.7 -0.3,1.2 -0.4,1.5 L 120,20 h -2.1 l -2.7,-7.7 c -0.1,-0.2 -0.2,-0.7 -0.4,-1.6 h -0.1 c 0.1,1.1 0.1,2.1 0.1,3 V 20 h -2.3 V 8.5 h 3.8 l 2.3,6.8 c 0.2,0.5 0.3,1.1 0.4,1.6 v 0 c 0.1,-0.6 0.3,-1.2 0.5,-1.6 l 2.3,-6.8 h 3.7 v 11.4 z"
   style="fill:#221d55" />
				<path
   id="XMLID_619_"
   class="st0"
   d="m 133,20.1 c -1.6,0 -3,-0.5 -4,-1.6 -1,-1.1 -1.5,-2.5 -1.5,-4.2 0,-1.8 0.5,-3.3 1.6,-4.4 1,-1.1 2.4,-1.7 4.2,-1.7 1.6,0 2.9,0.5 4,1.6 1,1.1 1.5,2.5 1.5,4.2 0,1.8 -0.5,3.2 -1.6,4.3 -1.1,1.2 -2.5,1.8 -4.2,1.8 z m 0.1,-9.6 c -0.9,0 -1.6,0.3 -2.2,1 -0.5,0.7 -0.8,1.6 -0.8,2.7 0,1.1 0.3,2 0.8,2.7 0.5,0.7 1.2,1 2.1,1 0.9,0 1.6,-0.3 2.1,-1 0.5,-0.6 0.8,-1.5 0.8,-2.7 0,-1.2 -0.3,-2.1 -0.8,-2.8 -0.4,-0.6 -1.1,-0.9 -2,-0.9 z"
   style="fill:#221d55" />
				<path
   id="XMLID_617_"
   class="st0"
   d="m 150.8,19.9 h -2.6 l -4.7,-7.2 C 143.2,12.3 143,12 142.9,11.8 v 0 c 0,0.4 0.1,1 0.1,1.8 v 6.3 h -2.4 V 8.5 h 2.8 l 4.5,7 c 0.2,0.3 0.4,0.6 0.6,0.9 v 0 c 0,-0.3 -0.1,-0.8 -0.1,-1.6 V 8.5 h 2.4 z"
   style="fill:#221d55" />
				<path
   id="XMLID_614_"
   class="st0"
   d="M 84.5,34.5 H 81.7 L 80.9,32 H 76.8 L 76,34.5 h -2.8 l 4.2,-11.4 h 3.1 z M 80.3,30 79,26.1 c -0.1,-0.3 -0.2,-0.6 -0.2,-1 h -0.1 c 0,0.3 -0.1,0.7 -0.2,1 L 77.3,30 Z"
   style="fill:#221d55" />
				<path
   id="XMLID_611_"
   class="st0"
   d="m 88.5,30.5 v 3.9 H 85.9 V 23.1 h 4 c 2.9,0 4.3,1.2 4.3,3.6 0,1.1 -0.4,2.1 -1.2,2.8 -0.8,0.7 -1.9,1.1 -3.3,1.1 h -1.2 z m 0,-5.5 v 3.6 h 1 c 1.4,0 2.1,-0.6 2.1,-1.8 0,-1.2 -0.7,-1.8 -2.1,-1.8 z"
   style="fill:#221d55" />
				<path
   id="XMLID_608_"
   class="st0"
   d="m 98.5,30.5 v 3.9 H 95.9 V 23.1 h 4 c 2.9,0 4.3,1.2 4.3,3.6 0,1.1 -0.4,2.1 -1.2,2.8 -0.8,0.7 -1.9,1.1 -3.3,1.1 h -1.2 z m 0,-5.5 v 3.6 h 1 c 1.4,0 2.1,-0.6 2.1,-1.8 0,-1.2 -0.7,-1.8 -2.1,-1.8 z"
   style="fill:#221d55" />
				<path
   id="XMLID_606_"
   class="st0"
   d="m 112.7,34.5 h -6.8 V 23.1 h 2.6 v 9.3 h 4.2 z"
   style="fill:#221d55" />
				<path
   id="XMLID_604_"
   class="st0"
   d="m 119,23.1 v 2 h -1 v 7.4 h 1 v 2 h -4.5 v -2 h 1 V 25 h -1 v -2 h 4.5 z"
   style="fill:#221d55" />
				<path
   id="XMLID_602_"
   class="st0"
   d="m 130.1,34.1 c -0.8,0.4 -1.9,0.6 -3.3,0.6 -1.8,0 -3.1,-0.5 -4.1,-1.5 -1,-1 -1.5,-2.4 -1.5,-4.1 0,-1.8 0.6,-3.3 1.7,-4.4 1.1,-1.1 2.6,-1.7 4.4,-1.7 1.1,0 2.1,0.1 2.8,0.4 v 2.5 c -0.8,-0.5 -1.6,-0.7 -2.6,-0.7 -1.1,0 -1.9,0.3 -2.6,1 -0.7,0.7 -1,1.6 -1,2.7 0,1.1 0.3,2 0.9,2.6 0.6,0.7 1.5,1 2.5,1 1,0 1.9,-0.2 2.8,-0.7 z"
   style="fill:#221d55" />
				<path
   id="XMLID_599_"
   class="st0"
   d="m 142.1,34.5 h -2.8 L 138.5,32 h -4.1 l -0.8,2.5 h -2.8 L 135,23.1 h 3.1 z m -4.2,-4.5 -1.2,-3.8 c -0.1,-0.3 -0.2,-0.6 -0.2,-1 h -0.1 c 0,0.3 -0.1,0.7 -0.2,1 L 135,30 Z"
   style="fill:#221d55" />
				<path
   id="XMLID_597_"
   class="st0"
   d="M 150.3,25.1 H 147 v 9.3 h -2.6 v -9.3 h -3.2 V 23 h 9.1 z"
   style="fill:#221d55" />
				<path
   id="XMLID_595_"
   class="st0"
   d="m 156.6,23.1 v 2 h -1 v 7.4 h 1 v 2 h -4.5 v -2 h 1 V 25 h -1 v -2 h 4.5 z"
   style="fill:#221d55" />
				<path
   id="XMLID_592_"
   class="st0"
   d="m 163.9,34.7 c -1.6,0 -3,-0.5 -4,-1.6 -1,-1.1 -1.5,-2.5 -1.5,-4.2 0,-1.8 0.5,-3.3 1.6,-4.4 1,-1.1 2.4,-1.7 4.2,-1.7 1.6,0 2.9,0.5 4,1.6 1,1.1 1.5,2.5 1.5,4.2 0,1.8 -0.5,3.2 -1.6,4.3 -1.2,1.2 -2.5,1.8 -4.2,1.8 z m 0.1,-9.6 c -0.9,0 -1.6,0.3 -2.2,1 -0.5,0.7 -0.8,1.6 -0.8,2.7 0,1.1 0.3,2 0.8,2.7 0.5,0.7 1.2,1 2.1,1 0.9,0 1.6,-0.3 2.1,-1 0.5,-0.6 0.8,-1.5 0.8,-2.7 0,-1.2 -0.3,-2.1 -0.8,-2.8 -0.4,-0.6 -1.1,-0.9 -2,-0.9 z"
   style="fill:#221d55" />
				<path
   id="XMLID_590_"
   class="st0"
   d="M 181.6,34.5 H 179 l -4.7,-7.2 c -0.3,-0.4 -0.5,-0.7 -0.6,-0.9 v 0 c 0,0.4 0.1,1 0.1,1.8 v 6.3 h -2.4 V 23.1 h 2.8 l 4.5,7 c 0.2,0.3 0.4,0.6 0.6,0.9 v 0 c 0,-0.3 -0.1,-0.8 -0.1,-1.6 v -6.3 h 2.4 z"
   style="fill:#221d55" />
				<path
   id="XMLID_587_"
   class="st0"
   d="M 77,45.1 V 49 H 74.4 V 37.6 h 4 c 2.9,0 4.3,1.2 4.3,3.6 0,1.1 -0.4,2.1 -1.2,2.8 -0.8,0.7 -1.9,1.1 -3.3,1.1 z m 0,-5.5 v 3.6 h 1 c 1.4,0 2.1,-0.6 2.1,-1.8 0,-1.2 -0.7,-1.8 -2.1,-1.8 z"
   style="fill:#221d55" />
				<path
   id="XMLID_584_"
   class="st0"
   d="m 89.3,49.3 c -1.6,0 -3,-0.5 -4,-1.6 -1,-1.1 -1.5,-2.5 -1.5,-4.2 0,-1.8 0.5,-3.3 1.6,-4.4 1,-1.1 2.4,-1.7 4.2,-1.7 1.6,0 2.9,0.5 4,1.6 1,1.1 1.5,2.5 1.5,4.2 0,1.8 -0.5,3.2 -1.6,4.3 -1.2,1.2 -2.6,1.8 -4.2,1.8 z m 0.1,-9.6 c -0.9,0 -1.6,0.3 -2.2,1 -0.6,0.7 -0.8,1.6 -0.8,2.7 0,1.1 0.3,2 0.8,2.7 0.5,0.7 1.2,1 2.1,1 0.9,0 1.6,-0.3 2.1,-1 0.5,-0.7 0.8,-1.5 0.8,-2.7 0,-1.2 -0.3,-2.1 -0.8,-2.8 -0.5,-0.6 -1.1,-0.9 -2,-0.9 z"
   style="fill:#221d55" />
				<path
   id="XMLID_581_"
   class="st0"
   d="m 105.9,49.1 h -3 l -1.8,-2.9 c -0.1,-0.2 -0.3,-0.4 -0.4,-0.6 -0.1,-0.2 -0.2,-0.3 -0.4,-0.4 -0.1,-0.1 -0.3,-0.2 -0.4,-0.3 -0.1,-0.1 -0.3,-0.1 -0.4,-0.1 h -0.7 v 4.4 H 96.2 V 37.6 h 4.1 c 2.8,0 4.2,1 4.2,3.1 0,0.4 -0.1,0.8 -0.2,1.1 -0.1,0.3 -0.3,0.6 -0.5,0.9 -0.2,0.3 -0.5,0.5 -0.8,0.7 -0.3,0.2 -0.7,0.4 -1.1,0.5 v 0 c 0.2,0.1 0.3,0.1 0.5,0.3 0.2,0.1 0.3,0.3 0.5,0.4 0.1,0.2 0.3,0.3 0.4,0.5 0.1,0.2 0.3,0.4 0.4,0.5 z m -7,-9.5 v 3.2 h 1.1 c 0.6,0 1,-0.2 1.3,-0.5 0.3,-0.3 0.5,-0.7 0.5,-1.2 0,-1 -0.6,-1.5 -1.8,-1.5 z"
   style="fill:#221d55" />
				<path
   id="XMLID_579_"
   class="st0"
   d="m 115,39.7 h -3.3 V 49 h -2.6 v -9.3 h -3.2 v -2.1 h 9.1 z"
   style="fill:#221d55" />
				<path
   id="XMLID_576_"
   class="st0"
   d="m 124.6,49.1 h -2.8 L 121,46.6 h -4.1 l -0.8,2.5 h -2.8 l 4.2,-11.4 h 3.1 z m -4.2,-4.6 -1.2,-3.8 c -0.1,-0.3 -0.2,-0.6 -0.2,-1 h -0.1 c 0,0.3 -0.1,0.7 -0.2,1 l -1.2,3.9 h 2.9 z"
   style="fill:#221d55" />
				<path
   id="XMLID_574_"
   class="st0"
   d="M 132.8,49.1 H 126 V 37.6 h 2.6 V 47 h 4.2 z"
   style="fill:#221d55" />
			</g>
		</g>
		<path
   id="XMLID_11_"
   class="st1"
   d="m 43,11.8 c -0.2,0 -0.5,0 -0.7,0 v 0 H 4.2 v 8.5 h 20.6 18 0.7 C 56.1,20.6 66.6,31 68.5,44.7 68.7,43.4 68.8,42 68.8,40.6 68.8,24.7 57.2,11.8 43,11.8 Z"
   style="fill:#f69433" />
		<path
   id="XMLID_10_"
   class="st2"
   d="m 43,29.1 v 0 L 4.2,29 v 8.5 h 8.9 9.1 22.6 v 0 c 0.3,0 0.6,0 1,0 11.8,0 21.6,6.4 22.9,14.5 C 67.2,39.4 56.4,29.5 43,29.1 Z"
   style="fill:#058161" />
		<path
   id="XMLID_9_"
   class="st0"
   d="m 45,3.9 c -6,0 -11.5,2.3 -15.7,6 h 12.1 c 2.2,-0.8 4.5,-1.2 7,-1.2 11.1,0 20.2,8.9 20.5,20.1 0,-0.2 0,-0.5 0,-0.7 C 68.8,14.7 58.1,3.9 45,3.9 Z"
   style="fill:#221d55" />
		<g
   id="XMLID_6_">
			<path
   id="XMLID_8_"
   class="st0"
   d="M 48.3,50.1 C 40.6,50.1 33.9,45.8 30.4,39.5 H 24 c 4,7.5 11.9,12.6 21,12.6 7,0 13.2,-3 17.6,-7.8 -3.7,3.6 -8.8,5.8 -14.3,5.8 z"
   style="fill:#221d55" />
			<path
   id="XMLID_7_"
   class="st0"
   d="m 27.9,27.1 c 0.2,-1.7 0.5,-3.2 1.1,-4.8 h -7.2 c -0.4,1.5 -0.6,3.1 -0.7,4.8 z"
   style="fill:#221d55" />
		</g>
	</g>
	<g
   transform="translate(5.3268714,-0.59187454)"
   id="XMLID_12_">
		<g
   id="XMLID_796_">
			
			
			
			
			
			
			
			
			
			
			
			
			
			
			
			
			
			
			
			
			
			
			
			
			
			
			
			
			
			
			
			
			
			
			
			
			
			
			
		<text
   id="text1073"
   y="22.799192"
   x="199.54501"
   style="font-style:italic;font-variant:normal;font-weight:normal;font-stretch:normal;font-size:8px;line-height:125%;font-family:sans-serif;-inkscape-font-specification:'sans-serif Italic';font-variant-ligatures:normal;font-variant-caps:normal;font-variant-numeric:normal;font-feature-settings:normal;text-align:start;letter-spacing:0px;word-spacing:0px;writing-mode:lr-tb;text-anchor:start;fill:#000000;fill-opacity:1;stroke:none;stroke-width:1px;stroke-linecap:butt;stroke-linejoin:miter;stroke-opacity:1"
   xml:space="preserve"><tspan
     style="font-style:italic;font-variant:normal;font-weight:normal;font-stretch:normal;font-size:10.66666698px;font-family:sans-serif;-inkscape-font-specification:'sans-serif, Italic';font-variant-ligatures:normal;font-variant-caps:normal;font-variant-numeric:normal;font-feature-settings:normal;text-align:start;writing-mode:lr-tb;text-anchor:start"
     id="tspan1063"
     y="22.799192"
     x="199.54501"><tspan
       dx="0 0 0 0 0 0 0 0 0 0 0 0 0 0"
       id="tspan1059"
       style="font-style:italic;font-variant:normal;font-weight:normal;font-stretch:normal;font-size:10.66666698px;font-family:sans-serif;-inkscape-font-specification:'sans-serif, Italic';font-variant-ligatures:normal;font-variant-caps:normal;font-variant-numeric:normal;font-feature-settings:normal;text-align:start;writing-mode:lr-tb;text-anchor:start"
       y="22.799192"
       x="199.54501">Admission to </tspan></tspan><tspan
     style="font-style:italic;font-variant:normal;font-weight:normal;font-stretch:normal;font-size:10.66666698px;font-family:sans-serif;-inkscape-font-specification:'sans-serif, Italic';font-variant-ligatures:normal;font-variant-caps:normal;font-variant-numeric:normal;font-feature-settings:normal;text-align:start;writing-mode:lr-tb;text-anchor:start"
     id="tspan1067"
     y="33.145546"
     x="199.54501"><tspan
       id="tspan1065"
       style="font-style:italic;font-variant:normal;font-weight:normal;font-stretch:normal;font-size:10.66666698px;font-family:sans-serif;-inkscape-font-specification:'sans-serif, Italic';font-variant-ligatures:normal;font-variant-caps:normal;font-variant-numeric:normal;font-feature-settings:normal;text-align:start;writing-mode:lr-tb;text-anchor:start"
       y="33.145546"
       x="199.54501">IITs and IISc for </tspan></tspan><tspan
     style="font-style:italic;font-variant:normal;font-weight:normal;font-stretch:normal;font-size:10.66666698px;font-family:sans-serif;-inkscape-font-specification:'sans-serif, Italic';font-variant-ligatures:normal;font-variant-caps:normal;font-variant-numeric:normal;font-feature-settings:normal;text-align:start;writing-mode:lr-tb;text-anchor:start"
     id="tspan1071"
     y="43.491905"
     x="199.54501"><tspan
       id="tspan1069"
       style="font-style:italic;font-variant:normal;font-weight:normal;font-stretch:normal;font-size:10.66666698px;font-family:sans-serif;-inkscape-font-specification:'sans-serif, Italic';font-variant-ligatures:normal;font-variant-caps:normal;font-variant-numeric:normal;font-feature-settings:normal;text-align:start;writing-mode:lr-tb;text-anchor:start"
       y="43.491905"
       x="199.54501">International Applicants</tspan></tspan></text>
</g>
	</g>
	<g
   id="XMLID_13_">
		<rect
   id="XMLID_51_"
   x="197"
   y="8.1999998"
   class="st3"
   width="1"
   height="41.299999"
   style="fill:#bcbec0" />
	</g>
</g>
</svg>