<?xml version="1.0" encoding="utf-8"?>
<!-- Generator: Adobe Illustrator 19.0.0, SVG Export Plug-In . SVG Version: 6.00 Build 0)  -->
<svg version="1.1" id="Layer_1" xmlns="http://www.w3.org/2000/svg" xmlns:xlink="http://www.w3.org/1999/xlink" x="0px" y="0px"
	 viewBox="0 0 73 56" style="enable-background:new 0 0 73 56;" xml:space="preserve">
<style type="text/css">
	.st0{fill:#F69433;}
	.st1{fill:#058161;}
	.st2{fill:#221D55;}
</style>
<g id="XMLID_4_">
	<g id="XMLID_5_">
		<path id="XMLID_11_" class="st0" d="M43,11.8c-0.2,0-0.5,0-0.7,0l0,0H4.2v8.5h20.6h18h0.7C56.1,20.6,66.6,31,68.5,44.7
			c0.2-1.3,0.3-2.7,0.3-4.1C68.8,24.7,57.2,11.8,43,11.8z"/>
		<path id="XMLID_10_" class="st1" d="M43,29.1L43,29.1L4.2,29v8.5h8.9h9.1h22.6v0c0.3,0,0.6,0,1,0c11.8,0,21.6,6.4,22.9,14.5
			C67.2,39.4,56.4,29.5,43,29.1z"/>
		<path id="XMLID_9_" class="st2" d="M45,3.9c-6,0-11.5,2.3-15.7,6h12.1c2.2-0.8,4.5-1.2,7-1.2c11.1,0,20.2,8.9,20.5,20.1
			c0-0.2,0-0.5,0-0.7C68.8,14.7,58.1,3.9,45,3.9z"/>
		<g id="XMLID_6_">
			<path id="XMLID_8_" class="st2" d="M48.3,50.1c-7.7,0-14.4-4.3-17.9-10.6H24c4,7.5,11.9,12.6,21,12.6c7,0,13.2-3,17.6-7.8
				C58.9,47.9,53.8,50.1,48.3,50.1z"/>
			<path id="XMLID_7_" class="st2" d="M27.9,27.1c0.2-1.7,0.5-3.2,1.1-4.8h-7.2c-0.4,1.5-0.6,3.1-0.7,4.8H27.9z"/>
		</g>
	</g>
</g>
</svg>
